<svg width="167" height="32" viewBox="0 0 167 32" fill="none" xmlns="http://www.w3.org/2000/svg">
<g clip-path="url(#clip0_106_2143)">
<path d="M14.7228 0.710125C18.544 0.710125 22.3652 0.618417 26.1762 0.730505C32.6365 0.9343 36.3965 4.74528 36.3659 10.9101C36.3456 16.9832 31.9843 21.6298 25.9418 21.7724C20.5106 21.9049 15.0795 21.9253 9.65851 21.752C7.22315 21.6807 6.43854 22.5468 6.69329 24.8395C6.82575 26.0114 6.83594 27.224 6.6831 28.3958C6.55063 29.3842 6.23475 31.0961 5.79658 31.1572C4.09489 31.412 2.30149 31.2082 0.579413 30.9738C0.334858 30.9432 0.0903027 29.8122 0.0801129 29.1906C0.0393537 25.2879 0.131062 21.3852 0.0291639 17.4825C-0.021785 15.6687 0.660931 15.1389 2.40338 15.1592C9.78079 15.2306 17.1684 15.2102 24.5458 15.1592C25.6157 15.1592 27.0932 15.1491 27.6639 14.5071C28.6115 13.427 29.5999 11.7457 29.4267 10.4821C29.2739 9.37145 27.7046 7.9245 26.492 7.59842C24.4948 7.06855 22.2938 7.28254 20.1744 7.28254C14.3254 7.28254 8.46631 7.23159 2.61737 7.37425C0.314478 7.43539 -0.154252 6.38584 0.0393537 4.44978C0.20239 2.73789 -0.704501 0.536899 2.50528 0.659176C6.57101 0.822213 10.6469 0.699935 14.7228 0.699935V0.710125Z" fill="#83AF82"/>
<path d="M56.7296 0.600468C60.3775 0.600468 64.0254 0.549519 67.6734 0.610658C74.5413 0.722746 78.444 4.42164 78.4338 10.7597C78.4338 17.057 73.9401 21.6118 67.5409 21.6933C62.2015 21.7647 56.8518 21.7952 51.5022 21.673C49.3827 21.622 48.5573 22.3149 48.7408 24.4446C48.8732 26.0444 48.7 27.6747 48.7815 29.2745C48.863 30.854 48.1294 31.4144 46.662 31.3431C45.8163 31.3023 44.9604 31.3125 44.1146 31.3431C42.5759 31.394 42.0461 30.6603 42.0766 29.1625C42.1378 25.3413 42.1887 21.5201 42.0563 17.7091C41.9849 15.7221 42.5963 15.0292 44.6445 15.0598C51.7671 15.1719 58.9 15.1005 66.0226 15.1005C66.7054 15.1005 67.3983 15.1617 68.0504 15.0496C70.2208 14.6828 71.6678 13.5211 71.6576 11.1775C71.6576 8.87458 70.3635 7.51934 68.0912 7.33592C65.9819 7.16269 63.8522 7.19326 61.7327 7.19326C56.0468 7.19326 50.3609 7.18307 44.675 7.27478C42.7492 7.30535 41.9646 6.73472 42.0155 4.656C42.1276 0.610658 42.0155 0.610658 45.9997 0.610658C49.5661 0.610658 53.1224 0.610658 56.6888 0.610658L56.7296 0.600468Z" fill="#83AF82"/>
<path d="M120.561 10.4285C118.921 10.4285 117.158 10.4795 115.415 10.3878C115.018 10.3674 114.376 9.9598 114.284 9.61334C113.663 7.19836 111.808 7.11685 109.872 7.11685C105.032 7.11685 100.202 7.11685 95.3619 7.11685C94.8524 7.11685 94.343 7.11685 93.8335 7.1678C92.1012 7.33083 90.7765 8.18677 90.8886 10.0006C91.0007 11.7634 92.2846 12.5378 94.0882 12.5276C99.5194 12.4869 104.951 12.4869 110.382 12.5276C113.327 12.5582 116.129 13.1594 118.279 15.4011C120.714 17.9282 121.56 21.0361 120.582 24.3274C119.563 27.7817 117.188 30.2069 113.5 30.8692C111.676 31.1953 109.791 31.2666 107.936 31.2463C102.515 31.1851 97.084 31.2463 91.6834 30.8183C87.8826 30.5228 84.7136 26.9054 84.1837 23.2065C84.0105 21.9837 84.2449 21.1278 85.6816 21.2501C87.8419 21.4437 90.4708 20.2107 91.6223 23.502C91.8465 24.144 93.5074 24.5821 94.506 24.6025C99.8454 24.7044 105.195 24.6637 110.545 24.6433C112.389 24.6433 114.101 24.1134 114.121 21.9226C114.142 19.5586 112.358 19.1204 110.402 19.1204C104.635 19.1204 98.857 19.2121 93.0896 19.0593C88.4125 18.937 84.7034 15.391 84.143 10.8565C83.6233 6.67868 86.4255 2.44992 90.6339 1.0743C91.1943 0.890885 91.7853 0.717659 92.3559 0.717659C99.2239 0.697279 106.092 0.62595 112.96 0.758418C117.209 0.839936 121.835 6.34242 120.541 10.4183L120.561 10.4285Z" fill="#83AF82"/>
</g>
<defs>
<clipPath id="clip0_106_2143">
<rect width="166.158" height="30.7685" fill="white" transform="translate(0 0.580566)"/>
</clipPath>
</defs>
</svg>
